<?xml version="1.0" standalone="no"?>
<!DOCTYPE svg PUBLIC "-//W3C//DTD SVG 20010904//EN"
 "http://www.w3.org/TR/2001/REC-SVG-20010904/DTD/svg10.dtd">
<svg version="1.0" xmlns="http://www.w3.org/2000/svg"
 width="7500.000000pt" height="5000.000000pt" viewBox="0 0 7500.000000 5000.000000"
 preserveAspectRatio="xMidYMid meet">

<g transform="translate(0.000000,5000.000000) scale(0.100000,-0.100000)"
fill="#000000" stroke="none">
<path d="M41965 37163 c-366 -23 -688 -121 -842 -256 -27 -24 -33 -26 -33 -11
0 27 46 100 82 129 30 24 31 26 8 20 -111 -30 -210 -150 -255 -307 -15 -52
-19 -58 -43 -59 -15 0 -52 -8 -82 -18 l-55 -17 40 -8 c22 -4 55 -14 72 -21
l33 -14 -29 -61 c-45 -95 -54 -176 -48 -410 12 -447 139 -1039 292 -1365 40
-86 93 -163 170 -250 20 -22 75 -86 123 -143 l87 -103 48 52 c96 103 175 240
198 342 9 45 10 72 1 120 -52 285 6 500 131 484 48 -7 136 -64 174 -113 15
-20 42 -53 59 -73 l31 -35 44 13 c64 19 104 68 193 236 159 302 260 424 406
494 75 36 75 36 210 36 119 -1 150 -5 265 -34 72 -18 236 -70 365 -116 293
-103 390 -128 500 -129 75 -1 90 2 131 26 114 67 237 265 290 467 27 99 29
260 6 351 -33 125 -81 206 -186 310 -281 278 -722 397 -1706 460 -145 9 -557
11 -680 3z"/>
<path d="M51260 36239 c-71 -21 -130 -109 -117 -176 2 -14 -1 -26 -7 -29 -6
-2 -609 -58 -1341 -124 -731 -66 -1351 -123 -1377 -126 -45 -5 -48 -8 -48 -34
0 -27 -2 -29 -62 -35 -93 -9 -829 -65 -854 -65 -15 0 -28 -13 -46 -47 -28 -55
-113 -118 -205 -153 -50 -19 -72 -21 -158 -17 -115 6 -205 32 -356 103 l-96
46 -529 -41 c-291 -23 -535 -41 -541 -41 -9 0 -13 -20 -13 -65 0 -36 -3 -65
-7 -65 -5 0 -448 -34 -985 -76 l-977 -75 -38 39 c-45 47 -94 61 -153 43 -42
-12 -86 -58 -96 -97 -4 -14 -2 -126 4 -249 9 -168 15 -233 27 -255 48 -92 200
-93 253 -1 l16 29 451 6 c247 3 694 8 993 11 l542 6 0 -48 c0 -26 4 -54 9 -62
7 -11 188 -11 1132 3 618 9 1262 19 1432 22 l307 7 0 -32 0 -31 1394 0 1393 0
5 -44 c10 -88 81 -155 163 -156 55 0 117 40 143 91 l22 46 -35 784 c-39 864
-36 840 -105 885 -43 28 -94 36 -140 23z"/>
<path d="M42051 32110 c-19 -89 -41 -281 -48 -415 l-6 -132 94 -97 c108 -112
102 -86 57 -286 -148 -656 -458 -1441 -830 -2105 -755 -1344 -1799 -2407
-3118 -3175 -183 -107 -503 -278 -650 -348 -335 -159 -787 -339 -1150 -457
-187 -60 -583 -175 -606 -175 -7 0 -47 -68 -90 -152 -42 -84 -180 -357 -306
-606 -158 -311 -225 -453 -216 -456 7 -3 249 -44 537 -92 l523 -87 87 27 c645
208 1448 581 2106 979 1221 738 2191 1633 2880 2657 614 914 1003 1922 1159
3010 55 383 77 709 77 1169 0 331 -2 376 -17 399 -27 41 -174 191 -239 242
-85 68 -206 150 -221 150 -7 0 -17 -22 -23 -50z"/>
<path d="M56890 27955 c-165 -38 -310 -56 -502 -62 -151 -5 -178 -8 -183 -22
-15 -49 -36 -173 -41 -245 -12 -147 29 -288 96 -338 17 -12 30 -28 30 -35 0
-22 93 -59 220 -88 378 -88 523 -141 574 -208 49 -64 58 -109 50 -253 -8 -153
3 -188 68 -232 58 -38 108 -35 188 13 83 49 151 58 193 25 36 -29 35 -69 -4
-143 -35 -67 -59 -167 -59 -249 0 -70 -48 -199 -104 -282 -25 -36 -29 -39 165
100 441 316 530 388 562 456 46 99 62 196 61 383 -1 362 -104 658 -295 844
-32 32 -59 61 -59 64 0 4 8 7 18 8 30 1 -18 17 -54 18 -28 1 -33 5 -38 34 -3
19 -13 42 -22 53 -15 18 -15 18 -9 -8 3 -16 3 -28 0 -28 -4 0 -44 22 -89 49
-105 62 -197 103 -311 137 -131 39 -308 43 -455 9z"/>
<path d="M18338 25363 c-18 -3 -30 -12 -33 -26 -3 -12 -53 -317 -111 -677
-174 -1082 -179 -1106 -208 -1150 -85 -129 -369 -445 -670 -746 -406 -405
-666 -604 -791 -604 -60 0 -200 -26 -269 -50 -33 -11 -61 -18 -63 -16 -3 2 1
40 9 83 8 48 13 157 12 283 0 218 -13 336 -61 575 -23 119 -25 137 -14 216 16
121 14 296 -4 387 -21 103 -74 210 -135 271 -27 27 -86 71 -131 98 -73 43 -87
57 -142 136 -126 185 -215 232 -437 232 -69 0 -141 -3 -160 -7 l-35 -8 28 25
c43 38 11 31 -91 -20 -87 -44 -91 -45 -142 -35 -78 15 -246 12 -319 -5 -198
-47 -366 -209 -460 -445 -39 -99 -76 -242 -98 -382 -23 -149 -25 -550 -3 -683
8 -49 15 -133 15 -185 0 -85 -3 -102 -29 -155 -47 -97 -205 -244 -432 -403
l-31 -21 -176 83 c-350 166 -865 457 -942 531 -43 42 -37 30 -618 1110 l-275
510 -61 3 c-52 2 -70 -1 -113 -25 -51 -28 -91 -76 -103 -124 -8 -33 -1 -56
176 -579 257 -758 442 -1273 551 -1530 59 -138 65 -148 142 -228 91 -95 233
-217 442 -379 l140 -109 -53 -80 c-114 -169 -211 -390 -248 -563 -19 -90 -20
-171 -2 -171 6 1 33 44 58 98 44 91 120 194 133 181 3 -3 -12 -76 -34 -163
-22 -86 -40 -162 -40 -169 0 -6 40 -34 88 -61 142 -79 434 -264 804 -509 302
-199 347 -232 343 -251 -5 -21 -37 -380 -114 -1251 -58 -648 -78 -972 -106
-1715 -25 -660 -39 -1300 -29 -1310 15 -15 428 -139 619 -185 385 -95 682
-128 810 -90 179 51 311 179 395 383 32 74 34 94 96 667 35 324 68 640 73 700
6 61 40 400 75 755 135 1343 196 2074 197 2384 0 155 -1 165 -31 261 -80 248
-284 704 -596 1327 -135 271 -136 271 -125 314 15 58 14 154 -4 309 -29 266
-41 322 -85 409 -33 66 -44 106 -64 219 -17 98 -20 140 -12 142 6 2 52 16 101
30 142 42 227 87 310 166 130 124 243 323 329 578 23 69 46 128 50 130 11 6
137 -91 179 -138 53 -59 82 -114 140 -271 68 -184 101 -247 136 -268 26 -14
30 -23 35 -82 8 -83 -9 -380 -28 -490 -29 -162 -79 -268 -139 -295 -18 -8 -62
-17 -99 -20 -53 -5 -68 -10 -68 -22 0 -9 9 -91 21 -182 20 -158 23 -171 71
-276 192 -417 242 -529 345 -765 203 -467 285 -689 302 -817 20 -147 240
-2859 256 -3153 5 -91 71 -930 109 -1377 9 -107 18 -159 30 -177 56 -87 208
-80 497 20 104 36 268 110 302 135 17 14 14 47 -52 719 -163 1640 -288 2972
-336 3595 -26 337 -41 451 -75 587 -36 140 -23 251 42 356 18 29 159 229 314
445 540 754 810 1163 930 1412 46 95 55 122 64 200 20 182 30 680 30 1495 l0
835 -58 24 c-57 24 -178 36 -244 24z m-2258 -3314 c-7 -11 -14 -19 -16 -16 -3
3 1 63 8 133 l13 129 3 -113 c2 -69 -2 -120 -8 -133z"/>
<path d="M56557 24603 l-107 -98 6 -75 c3 -47 -12 -289 -40 -650 -133 -1680
-259 -3381 -322 -4340 -9 -140 -17 -338 -18 -440 0 -173 1 -190 26 -271 63
-200 192 -418 365 -613 l42 -47 56 68 c135 164 277 418 332 598 l28 90 -1 540
c0 514 -4 674 -39 1575 -31 798 -117 2688 -145 3194 l-10 179 31 54 31 54 -40
87 c-22 48 -48 111 -58 140 -10 28 -21 52 -25 52 -3 0 -54 -44 -112 -97z"/>
<path d="M37226 22549 c-17 -48 -113 -395 -155 -559 -93 -364 -142 -640 -161
-905 -71 -987 -770 -3053 -1315 -3887 -35 -53 -104 -150 -154 -215 -242 -320
-446 -755 -666 -1423 -418 -1271 -831 -3357 -1119 -5645 -38 -305 -39 -293 37
-372 l40 -42 -49 -59 c-27 -33 -95 -111 -151 -172 -249 -273 -353 -499 -309
-670 29 -112 101 -215 291 -420 201 -216 278 -346 315 -530 43 -208 101 -332
212 -445 37 -38 68 -71 68 -72 0 -2 -3769 -2 -8376 0 l-8377 2 -13 45 c-18 62
-71 120 -141 157 -75 39 -127 56 -293 93 -85 19 -149 40 -171 55 -43 28 -147
155 -227 277 l-57 88 -100 0 c-151 0 -261 38 -336 116 l-32 33 -21 -62 c-12
-34 -58 -122 -104 -195 -132 -211 -154 -280 -155 -484 l-1 -128 -536 0 -535 0
-18 51 c-43 120 -141 178 -414 245 l-178 43 -70 73 c-39 40 -106 126 -149 191
l-80 117 -101 0 c-146 0 -239 32 -331 112 -19 17 -36 29 -37 27 -2 -2 -10 -27
-18 -55 -9 -27 -51 -106 -94 -175 -140 -222 -165 -299 -165 -506 l0 -123
-4395 0 c-4382 0 -4395 0 -4415 -20 -28 -28 -28 -102 0 -130 20 -20 33 -20
7957 -20 4366 0 19224 0 33018 0 l25080 0 23 25 c28 33 29 84 1 119 l-20 26
-4586 0 -4586 0 66 61 c83 76 138 180 167 317 33 158 63 209 232 396 176 195
214 264 204 373 -10 113 -87 248 -229 401 -40 42 -86 95 -104 118 l-32 41 34
33 c19 19 37 41 40 50 11 35 -112 931 -211 1530 -188 1151 -405 2101 -628
2758 -157 459 -281 706 -511 1017 l-74 99 107 28 c59 16 145 37 192 49 187 44
382 100 1545 439 835 243 1231 363 1277 386 79 40 182 133 234 212 21 31 51
95 68 142 27 75 30 98 30 200 1 104 -3 127 -37 245 -21 72 -101 346 -178 610
-88 303 -153 508 -176 555 -49 103 -167 220 -273 272 -109 54 -194 71 -315 65
-90 -5 -142 -18 -515 -126 -228 -66 -436 -126 -462 -134 l-47 -15 -20 67 c-10
36 -29 99 -41 139 -34 116 -108 181 -207 182 -49 0 -49 -1 -27 -76 11 -40 20
-54 34 -54 39 0 60 -34 95 -150 19 -63 35 -122 35 -130 0 -11 -111 -47 -442
-144 -244 -71 -448 -131 -454 -133 -15 -6 -88 251 -80 283 8 32 35 47 134 74
l83 23 -7 46 c-12 84 -16 87 -52 36 -31 -44 -57 -64 -69 -52 -3 3 -8 19 -12
35 l-6 29 -55 -18 c-84 -27 -150 -114 -150 -197 0 -16 42 -173 76 -283 3 -13
-6 -19 -41 -28 -51 -13 -381 -110 -670 -196 -104 -32 -211 -68 -237 -81 l-48
-24 0 178 c0 335 -41 706 -126 1152 -15 74 -27 136 -29 138 -1 1 -36 -14 -78
-33 -255 -118 -768 -203 -1492 -246 -246 -15 -992 -15 -1210 0 -362 24 -660
66 -789 111 -33 11 -61 18 -63 16 -4 -4 155 -2016 197 -2496 23 -258 177
-2226 245 -3110 96 -1263 127 -1714 155 -2260 21 -404 71 -1041 130 -1670 33
-344 25 -316 98 -369 l26 -19 -38 -77 c-118 -238 -436 -427 -865 -515 -238
-49 -318 -104 -365 -252 -5 -17 -90 -18 -1593 -18 l-1588 0 -1 193 c0 153 -6
227 -27 367 -23 154 -25 187 -17 275 38 408 65 1138 56 1535 -21 947 -123
1502 -335 1835 -80 125 -115 348 -186 1170 -102 1187 -184 1744 -325 2213 -22
73 -40 134 -40 136 0 3 -22 -10 -50 -29 -173 -117 -603 -191 -1257 -217 -569
-23 -1147 24 -1305 107 l-48 24 0 -27 c0 -15 16 -218 35 -452 19 -233 32 -426
30 -428 -2 -2 -69 13 -149 34 -120 30 -146 40 -142 53 29 97 46 190 41 218 -7
40 -45 87 -82 101 -26 10 -184 52 -197 52 -7 0 -38 -72 -32 -77 2 -2 46 -15
97 -29 52 -14 103 -34 113 -44 19 -19 19 -20 -4 -115 -14 -52 -28 -95 -32 -95
-10 0 -621 161 -629 166 -3 2 4 42 17 90 22 82 26 90 79 136 30 27 53 54 49
59 -9 15 -83 10 -121 -7 -46 -23 -60 -47 -90 -156 -14 -51 -26 -94 -28 -96 -1
-1 -146 34 -321 79 -306 78 -323 81 -410 77 -81 -3 -100 -8 -167 -41 -87 -43
-162 -118 -200 -200 -40 -86 -247 -894 -247 -963 0 -117 46 -228 129 -310 65
-65 123 -96 246 -129 55 -15 107 -31 116 -36 9 -4 198 -56 420 -114 222 -59
645 -169 939 -247 554 -145 593 -153 708 -133 37 6 42 4 42 -12 0 -22 156
-1892 275 -3308 82 -968 88 -1021 107 -1036 21 -16 21 -17 4 -60 -75 -188
-323 -330 -704 -403 -161 -31 -221 -56 -271 -112 l-39 -44 -2266 0 c-2150 0
-2267 1 -2273 18 -45 134 -152 233 -303 281 -36 11 -115 29 -176 41 -606 112
-1088 396 -1252 738 l-35 73 25 27 c23 25 27 44 47 217 224 1952 269 2474 326
3765 125 2878 228 4490 400 6260 94 967 128 1816 123 3057 -2 430 -6 784 -9
787 -3 3 -57 -18 -120 -48 -804 -378 -1773 -571 -2651 -528 -658 33 -1293 138
-1767 294 -343 112 -575 235 -733 386 -46 44 -69 60 -72 51z m2074 -6639 c57
-1337 100 -2189 130 -2590 116 -1512 415 -3308 821 -4935 39 -154 74 -284 78
-288 4 -4 49 -16 98 -25 l91 -16 5 -326 c5 -329 15 -427 52 -539 8 -25 15 -48
15 -53 0 -4 -1165 -8 -2590 -8 l-2590 0 0 52 c0 125 -69 187 -274 243 -229 63
-385 253 -454 552 -31 132 -34 174 -35 621 -2 363 0 411 13 406 43 -18 48 -15
82 38 248 388 1324 2237 2160 3713 562 993 1080 1978 1956 3722 l387 771 13
-316 c6 -174 26 -634 42 -1022z m19012 -3224 c210 -434 457 -918 628 -1231
334 -609 1634 -2851 1720 -2965 13 -18 21 -20 36 -12 19 10 19 2 18 -301 -1
-183 -7 -338 -13 -374 -25 -134 -79 -251 -152 -328 -57 -61 -120 -97 -206
-119 -72 -18 -134 -55 -154 -93 -8 -14 -14 -50 -13 -80 l0 -53 -1543 0 -1544
0 16 31 c38 72 48 157 51 434 l3 269 42 11 43 10 43 150 c125 437 323 1288
423 1819 175 930 250 1538 325 2626 49 727 46 690 58 660 6 -14 105 -218 219
-454z m-8023 -1482 c137 -409 300 -959 580 -1954 92 -328 375 -1351 400 -1446
9 -35 16 -43 41 -48 17 -3 30 -11 30 -17 0 -6 -13 -39 -30 -74 -46 -96 -142
-181 -283 -250 -127 -61 -225 -92 -434 -134 -158 -32 -214 -58 -259 -116 l-26
-35 -374 0 -374 0 7 28 c12 40 5 303 -10 416 -9 67 -10 99 -3 101 49 14 43 -2
122 295 97 362 201 846 273 1270 84 491 133 924 176 1565 14 209 30 444 35
522 6 78 10 157 10 175 1 51 10 28 119 -298z"/>
<path d="M49374 21685 c-119 -25 -329 -48 -403 -44 l-46 3 -13 -54 c-18 -75
-20 -236 -4 -282 16 -44 74 -117 107 -135 12 -7 96 -30 186 -52 252 -61 318
-91 356 -164 12 -25 14 -50 10 -119 -7 -106 4 -150 43 -178 42 -30 78 -28 150
9 72 35 87 37 118 15 29 -20 28 -39 -5 -110 -18 -40 -29 -84 -33 -139 -5 -62
-15 -98 -43 -158 -20 -43 -31 -74 -24 -70 69 42 448 324 477 355 57 61 83 278
56 455 -29 191 -86 322 -185 427 -31 32 -54 61 -51 65 3 3 -7 7 -22 9 -20 2
-28 10 -33 32 -4 17 -11 33 -17 36 -7 5 -9 0 -6 -14 6 -22 5 -21 -35 4 -129
80 -298 134 -412 133 -33 0 -110 -11 -171 -24z"/>
<path d="M23892 20484 c-316 -85 -528 -438 -619 -1031 -13 -82 -16 -167 -15
-353 1 -135 -3 -285 -9 -335 -34 -276 -164 -468 -440 -650 -196 -129 -298
-236 -375 -390 -122 -246 -106 -547 46 -873 l39 -83 -69 -207 c-163 -489 -243
-900 -243 -1252 -1 -190 7 -257 45 -387 19 -67 38 -95 38 -58 0 46 291 293
495 420 l75 47 751 -196 751 -197 77 42 c42 23 111 66 154 95 43 30 82 54 87
54 15 0 28 -54 18 -79 -4 -13 -7 -26 -5 -28 2 -2 44 3 93 11 49 8 108 13 130
11 68 -5 232 -97 356 -198 32 -26 59 -47 61 -47 2 0 7 69 10 153 9 225 69 742
95 824 6 19 25 -9 111 -165 57 -103 129 -227 159 -277 62 -99 186 -267 225
-303 l25 -23 15 43 c8 24 65 187 126 363 62 176 134 383 162 459 27 77 49 143
49 148 0 5 -30 84 -66 176 -37 92 -122 327 -190 523 -209 609 -290 805 -376
917 -97 125 -332 256 -575 318 -40 10 -73 22 -73 26 0 4 16 30 35 57 70 97
130 261 166 454 17 91 22 165 26 396 4 188 2 282 -4 278 -6 -4 -14 -35 -17
-69 -31 -268 -127 -553 -213 -628 -32 -28 -39 -30 -118 -30 l-85 0 -1 -47 c-1
-27 -3 -123 -4 -214 -3 -176 -9 -202 -57 -245 -72 -66 -180 -79 -329 -41 -99
26 -267 96 -382 160 l-67 38 28 28 c53 53 72 179 72 471 0 177 -2 200 -22 250
-18 45 -22 82 -26 202 l-4 147 38 6 c279 43 342 71 485 214 108 108 199 240
280 404 30 59 57 107 60 107 4 0 39 -34 78 -76 95 -102 123 -163 166 -363 36
-169 67 -254 97 -259 30 -6 82 190 92 343 12 206 -48 347 -197 464 -54 43 -69
62 -110 144 -99 200 -208 269 -449 285 l-103 7 30 18 30 17 -40 -6 c-22 -4
-68 -17 -102 -30 -57 -21 -66 -22 -95 -9 -102 42 -295 57 -396 29z m1192
-2160 c-16 -106 -51 -261 -72 -316 -8 -19 -16 -25 -31 -21 -19 5 -19 5 0 50
27 64 75 225 95 320 10 46 19 81 21 79 2 -1 -4 -52 -13 -112z"/>
<path d="M49167 19353 l-79 -75 7 -46 c3 -26 -14 -301 -39 -622 -135 -1719
-226 -3000 -226 -3180 0 -47 7 -112 15 -144 33 -125 136 -307 243 -426 l48
-54 44 55 c111 139 197 302 231 439 21 82 22 98 16 485 -10 583 -60 1854 -123
3068 l-15 298 22 39 22 39 -31 68 c-17 37 -37 82 -44 100 l-13 32 -78 -76z"/>
<path d="M22772 14668 c-6 -35 -32 -134 -57 -221 -25 -86 -45 -162 -45 -167 0
-7 289 -10 835 -10 l835 0 5 28 c8 37 34 88 56 108 45 40 77 43 517 44 l422 0
0 104 0 103 -82 7 c-46 4 -123 14 -173 22 -143 26 -263 22 -370 -11 -215 -66
-247 -67 -406 -20 -96 29 -142 32 -614 40 -315 5 -673 19 -831 31 l-80 6 -12
-64z"/>
<path d="M47635 14349 c-9 -28 1 -36 14 -10 7 12 7 22 2 26 -5 3 -13 -4 -16
-16z"/>
<path d="M47710 14329 c0 -5 5 -7 10 -4 6 3 10 8 10 11 0 2 -4 4 -10 4 -5 0
-10 -5 -10 -11z"/>
<path d="M47806 14304 c-9 -24 -2 -26 12 -4 7 11 8 20 3 20 -5 0 -12 -7 -15
-16z"/>
<path d="M22425 13487 c-14 -54 -21 -184 -13 -245 10 -83 48 -148 104 -179
l40 -23 13 -97 c46 -348 202 -686 422 -910 95 -96 191 -146 344 -178 490 -101
1366 58 2610 475 132 44 243 80 247 80 4 0 -2 -24 -14 -52 -47 -118 -130 -387
-181 -593 -136 -543 -284 -1448 -368 -2248 -14 -137 -26 -119 121 -196 145
-76 220 -95 368 -96 l124 0 98 265 c54 146 236 636 405 1090 168 453 307 826
309 827 2 2 54 -54 117 -124 284 -318 880 -886 1542 -1467 l238 -209 147 6
c197 8 303 39 390 112 l31 26 -65 132 c-111 220 -396 762 -592 1122 -588 1082
-1070 1882 -1441 2387 l-86 117 -2452 1 -2453 0 -5 -23z"/>
<path d="M30220 9144 c-166 -84 -238 -99 -460 -98 -136 0 -219 6 -315 22 -71
11 -168 24 -214 28 l-83 7 3 -96 c5 -110 19 -138 85 -172 60 -31 190 -25 394
18 159 33 172 34 321 29 170 -5 307 7 432 39 94 24 190 67 184 84 -3 6 -11 46
-17 88 -14 84 -11 82 -100 92 -125 14 -120 15 -230 -41z"/>
<path d="M25149 8691 c-94 -69 -121 -108 -121 -171 1 -37 8 -64 28 -98 29 -50
145 -169 306 -315 73 -66 115 -114 165 -190 85 -129 275 -324 387 -396 108
-70 233 -107 290 -85 36 14 8 91 -96 266 -38 64 -45 71 -113 102 -172 80 -345
230 -461 401 -34 50 -111 180 -173 290 -61 110 -119 210 -128 222 l-18 22 -66
-48z"/>
</g>
</svg>
