<?xml version="1.0" standalone="no"?><svg xmlns="http://www.w3.org/2000/svg" viewBox="0 0 1440 320"><path fill="#273036" fill-opacity="1" d="M0,96L12,96C24,96,48,96,72,101.3C96,107,120,117,144,128C168,139,192,149,216,165.3C240,181,264,203,288,192C312,181,336,139,360,106.7C384,75,408,53,432,58.7C456,64,480,96,504,96C528,96,552,64,576,85.3C600,107,624,181,648,186.7C672,192,696,128,720,96C744,64,768,64,792,64C816,64,840,64,864,96C888,128,912,192,936,218.7C960,245,984,235,1008,213.3C1032,192,1056,160,1080,149.3C1104,139,1128,149,1152,133.3C1176,117,1200,75,1224,74.7C1248,75,1272,117,1296,149.3C1320,181,1344,203,1368,186.7C1392,171,1416,117,1428,90.7L1440,64L1440,0L1428,0C1416,0,1392,0,1368,0C1344,0,1320,0,1296,0C1272,0,1248,0,1224,0C1200,0,1176,0,1152,0C1128,0,1104,0,1080,0C1056,0,1032,0,1008,0C984,0,960,0,936,0C912,0,888,0,864,0C840,0,816,0,792,0C768,0,744,0,720,0C696,0,672,0,648,0C624,0,600,0,576,0C552,0,528,0,504,0C480,0,456,0,432,0C408,0,384,0,360,0C336,0,312,0,288,0C264,0,240,0,216,0C192,0,168,0,144,0C120,0,96,0,72,0C48,0,24,0,12,0L0,0Z"></path></svg>